<svg width="156" height="140" viewBox="0 0 156 140" fill="none" xmlns="http://www.w3.org/2000/svg">
<path d="M65 0V23.3333H52L78 46.6667L104 23.3333H91V0H65ZM6.5 11.6667V23.3333H19.5L42.9 67.6083L34.125 81.9C33.085 83.5333 32.5 85.4583 32.5 87.5C32.5 90.5942 33.8696 93.5617 36.3076 95.7496C38.7456 97.9375 42.0522 99.1667 45.5 99.1667H123.5V87.5H48.23C47.385 87.5 46.605 86.8583 46.605 86.0417L46.8 85.3417L52.65 75.8333H101.075C105.95 75.8333 110.24 73.4417 112.45 69.825L137.54 28.9333L126.23 23.3333H126.165L119.015 35L101.075 64.1667H55.445L54.6 62.5917L40.04 35L33.865 23.3333L27.755 11.6667H6.5ZM45.5 105C42.0522 105 38.7456 106.229 36.3076 108.417C33.8696 110.605 32.5 113.572 32.5 116.667C32.5 119.761 33.8696 122.728 36.3076 124.916C38.7456 127.104 42.0522 128.333 45.5 128.333C48.9478 128.333 52.2544 127.104 54.6924 124.916C57.1304 122.728 58.5 119.761 58.5 116.667C58.5 113.572 57.1304 110.605 54.6924 108.417C52.2544 106.229 48.9478 105 45.5 105ZM110.5 105C107.052 105 103.746 106.229 101.308 108.417C98.8696 110.605 97.5 113.572 97.5 116.667C97.5 119.761 98.8696 122.728 101.308 124.916C103.746 127.104 107.052 128.333 110.5 128.333C113.948 128.333 117.254 127.104 119.692 124.916C122.13 122.728 123.5 119.761 123.5 116.667C123.5 113.572 122.13 110.605 119.692 108.417C117.254 106.229 113.948 105 110.5 105Z" fill="black"/>
</svg>
